<svg width="16" height="17" viewBox="0 0 16 17" fill="none" xmlns="http://www.w3.org/2000/svg">
<g clip-path="url(#clip0_1033_4376)">
<path d="M8.13123 16.8906H7.86713C7.85391 16.8813 7.84156 16.869 7.82701 16.8628C5.35493 15.8479 2.88328 14.8334 0.410754 13.8193C0.0986024 13.6915 0.000283281 13.5473 -0.000157612 13.2012C-0.000598504 10.0277 -0.000598504 6.85411 -0.000157612 3.68056C-0.000157612 3.3274 0.095957 3.19117 0.423981 3.05625C2.85066 2.05984 5.27689 1.06386 7.70092 0.0630325C7.90858 -0.0229416 8.09816 -0.0198554 8.30406 0.065237C10.7329 1.0665 13.1627 2.06469 15.5938 3.06066C15.864 3.17133 15.9998 3.3543 15.9998 3.6519C15.9972 6.84176 15.9972 10.0321 15.9998 13.2219C15.9998 13.5186 15.8711 13.7073 15.6004 13.818C13.8796 14.5221 12.1597 15.228 10.4402 15.9347C9.66994 16.2513 8.90103 16.5718 8.13123 16.8906ZM14.9351 4.43096C14.8531 4.46314 14.8028 4.4821 14.7526 4.50282C12.7328 5.3317 10.7135 6.1619 8.6916 6.98681C8.56551 7.0384 8.52362 7.0988 8.52362 7.23592C8.52803 9.94785 8.52715 12.6602 8.52715 15.3722C8.52715 15.4308 8.52715 15.4894 8.52715 15.5631C8.60166 15.5362 8.6581 15.5181 8.71321 15.4956C10.7285 14.6676 12.743 13.8374 14.7601 13.0138C14.8928 12.9596 14.9391 12.8992 14.9386 12.7537C14.9338 10.047 14.9351 7.34041 14.9351 4.63377C14.9351 4.57425 14.9351 4.51473 14.9351 4.43052V4.43096ZM1.07209 4.43008C1.06813 4.49665 1.06372 4.53986 1.06372 4.58263C1.06372 7.32145 1.06416 10.0603 1.06019 12.7991C1.06019 12.9159 1.10604 12.9578 1.20436 12.9984C3.02128 13.7417 4.83688 14.489 6.65336 15.235C6.9201 15.3448 7.18816 15.452 7.46372 15.5635C7.46724 15.5207 7.47077 15.4987 7.47077 15.4771C7.47077 12.7109 7.47077 9.94476 7.47386 7.17816C7.47386 7.07323 7.43021 7.03796 7.34512 7.00357C6.62823 6.71258 5.9131 6.41806 5.19753 6.12443C4.97047 6.0314 4.74341 5.93749 4.49651 5.83564C4.49651 5.92073 4.49651 5.98026 4.49651 6.03978C4.49651 6.73286 4.49871 7.4255 4.49563 8.11859C4.4943 8.44837 4.26372 8.67852 3.95112 8.67455C3.64382 8.67058 3.43396 8.44132 3.43307 8.09478C3.43043 7.24782 3.42999 6.40087 3.4344 5.55391C3.43484 5.43752 3.40089 5.37932 3.28978 5.33523C2.73911 5.11655 2.1924 4.8886 1.64393 4.66375C1.45787 4.58747 1.27182 4.51164 1.07253 4.43008H1.07209ZM14.1225 3.60957C13.1803 3.22159 12.2664 2.84727 11.3546 2.46766C11.2382 2.41916 11.1425 2.42622 11.0288 2.47604C9.77311 3.0276 8.51525 3.5743 7.25782 4.12321C6.60045 4.40979 5.94396 4.6977 5.26454 4.99486C5.33994 5.02837 5.39372 5.0535 5.4484 5.07643C6.2398 5.40225 7.03208 5.72498 7.82128 6.05565C7.94782 6.10856 8.05319 6.10767 8.17884 6.05565C9.5174 5.50145 10.8582 4.95253 12.1985 4.40142C12.8276 4.14305 13.4563 3.88381 14.1225 3.60913V3.60957ZM9.81544 1.84777C9.73608 1.81161 9.6889 1.78825 9.63996 1.76841C9.15322 1.5678 8.66427 1.37204 8.18061 1.16482C8.05407 1.11059 7.94958 1.11192 7.8226 1.16482C5.98849 1.92184 4.15217 2.674 2.31673 3.42749C2.1805 3.48348 2.04514 3.54212 1.88157 3.61134C2.51646 3.87191 3.12048 4.1166 3.72142 4.36967C3.83737 4.41861 3.93217 4.41861 4.04768 4.36791C5.61946 3.67791 7.19345 2.99277 8.767 2.3063C9.10648 2.15816 9.44553 2.01002 9.81588 1.84821L9.81544 1.84777Z" fill="#ACB3BD"/>
</g>
<defs>
<clipPath id="clip0_1033_4376">
<rect width="16" height="16.8906" fill="white"/>
</clipPath>
</defs>
</svg>
