<svg width="32" height="28" viewBox="0 0 32 28" fill="none" xmlns="http://www.w3.org/2000/svg">
<g clip-path="url(#clip0_1092_3495)">
<path d="M15.9968 15.1881C14.5856 16.3415 13.2031 17.4689 11.8225 18.6C11.2837 19.0409 11.2864 19.0437 10.6733 18.7265C7.25334 16.9527 3.83343 15.1779 0.413521 13.4041C-0.103042 13.1362 -0.133701 12.8971 0.31504 12.5353C1.50611 11.5753 2.69997 10.6191 3.89289 9.66105C3.98208 9.58942 4.06942 9.51408 4.17533 9.42757C4.07685 9.32339 3.99416 9.23224 3.90683 9.1448C2.83375 8.06952 1.75882 6.99611 0.687598 5.9199C0.316898 5.54783 0.357777 5.34691 0.837178 5.12646C4.47078 3.45309 8.10716 1.78436 11.737 0.0998197C12.0836 -0.0610999 12.3047 -0.00621978 12.5602 0.254228C13.6881 1.40392 14.8299 2.53873 15.9885 3.70144C16.0953 3.60191 16.1882 3.52006 16.2756 3.43262C17.3412 2.36665 18.4124 1.30532 19.4669 0.229113C19.7057 -0.0145913 19.9119 -0.06203 20.2288 0.084937C23.8791 1.77506 27.5359 3.45216 31.1909 5.13483C31.6461 5.34412 31.6805 5.55806 31.3237 5.91618C30.2432 6.99983 29.1618 8.08348 28.0775 9.1634C27.9967 9.2434 27.8927 9.30014 27.7719 9.38758C28.7298 10.1578 29.6226 10.8768 30.5164 11.5939C30.9047 11.9065 31.2958 12.2144 31.6833 12.5288C32.1311 12.8925 32.1079 13.1399 31.6006 13.4031C28.9109 14.7993 26.2213 16.1946 23.5316 17.5898C22.741 18 21.9475 18.4037 21.1615 18.8242C20.8633 18.9832 20.6375 18.9897 20.3523 18.7497C19.021 17.6326 17.6664 16.5415 16.3202 15.4421C16.2226 15.3621 16.1223 15.2867 15.9978 15.1891L15.9968 15.1881ZM5.61075 9.45641C5.71016 9.51129 5.75847 9.54291 5.80957 9.5671C9.13657 11.0991 12.4636 12.6329 15.7952 14.1547C15.9179 14.2105 16.112 14.2003 16.2375 14.1435C18.1848 13.2599 20.1266 12.3632 22.0683 11.4684C23.4954 10.8117 24.9215 10.1531 26.3839 9.47873C26.2742 9.41548 26.1999 9.36339 26.1191 9.32618C22.8329 7.81187 19.5477 6.29662 16.2551 4.79625C16.1055 4.72835 15.8668 4.74416 15.7125 4.81393C13.4818 5.82688 11.2586 6.85565 9.03344 7.8807C7.91206 8.39694 6.79067 8.91412 5.61075 9.45734V9.45641Z" fill="white"/>
<path d="M27.6761 16.278C27.6761 18.157 27.6826 19.9662 27.6733 21.7753C27.6677 22.8785 27.8489 22.6692 26.7712 23.1687C23.446 24.71 20.12 26.2485 16.7939 27.788C16.661 27.8494 16.5263 27.9061 16.3665 27.9768V16.4269C16.4957 16.5236 16.5941 16.5915 16.6861 16.6678C17.7685 17.5589 18.8518 18.4509 19.9323 19.3439C20.4581 19.7783 20.8474 19.8229 21.4615 19.5039C23.4024 18.4956 25.3423 17.4863 27.2822 16.4771C27.3927 16.4194 27.5042 16.3645 27.6761 16.2771V16.278Z" fill="white"/>
<path d="M4.4038 16.3115C5.23718 16.745 6.03525 17.1598 6.83239 17.5747C8.05319 18.21 9.28514 18.8276 10.492 19.4899C11.1256 19.8369 11.6729 19.7271 12.1885 19.3095C13.2885 18.4202 14.3737 17.5142 15.4653 16.6148C15.509 16.5785 15.5554 16.5459 15.6418 16.4808V28C15.0705 27.7387 14.5251 27.4922 13.9825 27.2401C10.9073 25.816 7.833 24.3882 4.75592 22.9678C4.52644 22.8618 4.37035 22.7474 4.37128 22.4618C4.37871 20.4657 4.37593 18.4704 4.37686 16.4743C4.37686 16.4399 4.38708 16.4064 4.40287 16.3115H4.4038Z" fill="white"/>
</g>
<defs>
<clipPath id="clip0_1092_3495">
<rect width="32" height="28" fill="white"/>
</clipPath>
</defs>
</svg>
