<svg width="14" height="17" viewBox="0 0 14 17" fill="none" xmlns="http://www.w3.org/2000/svg">
<g clip-path="url(#clip0_1092_3482)">
<path d="M2.56377 17C2.43729 16.9742 2.31039 16.9497 2.18432 16.9223C0.983982 16.6591 0.181155 15.7728 0.0386578 14.5356C-0.0459369 13.8002 0.0197677 13.0672 0.12161 12.338C0.210311 11.7028 0.347059 11.078 0.597557 10.4855C0.930597 9.69774 1.38232 9.0068 2.15722 8.58816C2.63522 8.32999 3.14772 8.20652 3.68362 8.21733C3.85281 8.22065 4.03062 8.30796 4.18503 8.39318C4.43388 8.53037 4.66549 8.69833 4.90572 8.85173C5.63176 9.31444 6.41775 9.56429 7.28094 9.49694C7.91089 9.44789 8.49319 9.2342 9.03279 8.90286C9.22416 8.78521 9.42209 8.6738 9.59498 8.53245C10.034 8.17326 10.521 8.16993 11.0376 8.28468C12.0289 8.50543 12.7159 9.10865 13.1894 9.99665C13.5894 10.7466 13.8046 11.5548 13.8986 12.3921C13.968 13.0111 14.0005 13.6372 14.0001 14.2604C13.9996 15.5944 13.0929 16.6741 11.7969 16.9293C11.6807 16.9522 11.5649 16.9763 11.4491 17H2.56377ZM6.98938 16.0048C7.52487 16.0048 8.06036 16.0048 8.59545 16.0048C9.44221 16.0039 10.2894 16.0193 11.1357 15.9981C12.3599 15.9678 13.042 15.2444 13.0202 14.0084C13.0116 13.5175 12.9804 13.0248 12.9213 12.538C12.8338 11.818 12.6667 11.1162 12.3172 10.4714C11.9969 9.88066 11.56 9.43749 10.8877 9.27619C10.5941 9.20593 10.3235 9.19554 10.0734 9.41089C9.93746 9.52812 9.77525 9.61459 9.62208 9.71021C8.10513 10.656 6.53273 10.7857 4.91681 9.99997C4.51109 9.8025 4.14109 9.52978 3.7522 9.29531C3.69388 9.25998 3.62243 9.22339 3.55837 9.22589C2.9892 9.2475 2.4956 9.44581 2.10917 9.88482C1.74246 10.301 1.51167 10.7915 1.3507 11.3183C1.0735 12.2245 0.997123 13.1595 0.993838 14.1007C0.991785 14.7197 1.17781 15.2652 1.70304 15.6435C2.09932 15.9287 2.55268 16.0031 3.02329 16.0039C4.34559 16.0064 5.66749 16.0048 6.98979 16.0048H6.98938Z" fill="#ACB3BD"/>
<path d="M10.9518 4.1107C10.953 6.37351 9.103 8.21769 6.8867 8.19607C4.61455 8.17404 2.84956 6.33859 2.85696 4.04418C2.86353 1.83916 4.73159 -0.0445135 6.96103 0.000800999C9.1724 0.0456998 10.9706 1.87657 10.9518 4.1107ZM9.95675 4.09573C9.98919 2.42824 8.58927 0.987742 6.89656 0.999798C5.20056 1.01185 3.82979 2.40413 3.84335 4.10945C3.85731 5.8314 5.2022 7.18543 6.90189 7.18876C8.60528 7.19209 9.96126 5.81935 9.95675 4.09573Z" fill="#ACB3BD"/>
</g>
<defs>
<clipPath id="clip0_1092_3482">
<rect width="14" height="17" fill="white"/>
</clipPath>
</defs>
</svg>
