<svg width="13" height="17" viewBox="0 0 13 17" fill="none" xmlns="http://www.w3.org/2000/svg">
<g clip-path="url(#clip0_1092_3472)">
<path d="M10.0993 3.95507C10.371 3.96784 10.6411 3.95507 10.9013 3.99765C11.8562 4.1547 12.4966 4.8709 12.5415 5.79334C12.6416 7.86767 12.7453 9.94152 12.848 12.0154C12.8973 13.0055 12.9496 13.9951 12.9975 14.9847C13.0538 16.1498 12.2006 16.9985 10.9745 16.999C7.99016 16.9994 5.0053 16.9994 2.02094 16.999C0.806864 16.999 -0.0528582 16.1479 0.00246311 14.9975C0.104633 12.882 0.209793 10.767 0.314455 8.65151C0.361802 7.69122 0.410146 6.73093 0.46148 5.77064C0.5173 4.72851 1.35758 3.97116 2.45703 3.96784C2.60456 3.96784 2.75258 3.96784 2.91904 3.96784C2.91904 3.77058 2.91904 3.5894 2.91904 3.40823C2.92203 1.68727 4.22333 0.270485 6.02052 0.0320675C7.97321 -0.226691 9.79831 1.08602 10.0445 2.93849C10.0889 3.2701 10.0819 3.60738 10.0993 3.95507ZM6.49947 15.8674C7.98567 15.8674 9.47137 15.8679 10.9576 15.8674C11.5048 15.8674 11.8208 15.5713 11.7989 15.0514C11.7535 13.9672 11.6942 12.8829 11.6394 11.7992C11.5816 10.6563 11.5227 9.51341 11.4649 8.37052C11.4226 7.53984 11.3897 6.7087 11.3368 5.87849C11.3025 5.33685 11.0179 5.1008 10.4457 5.1008C7.8217 5.1008 5.19818 5.1008 2.57415 5.1008C1.96911 5.1008 1.6925 5.33543 1.65961 5.91255C1.59831 6.99016 1.55046 8.06872 1.49713 9.14727C1.45527 9.98977 1.4149 10.8323 1.37204 11.6748C1.31522 12.7883 1.26538 13.9024 1.19561 15.015C1.16022 15.5784 1.5694 15.8778 2.07826 15.8731C3.5515 15.8598 5.02524 15.8684 6.49897 15.8684L6.49947 15.8674ZM8.8748 3.96075C8.97647 2.90868 8.70535 2.0132 7.70657 1.45595C6.85532 0.980533 5.97866 1.01175 5.15831 1.53684C4.25423 2.11585 4.02846 2.97728 4.12664 3.96075H8.8748Z" fill="#ACB3BD"/>
<path d="M3.72743 6.90657C3.397 6.90609 3.13734 6.66105 3.13484 6.34695C3.13235 6.02527 3.3955 5.77361 3.73391 5.77503C4.05986 5.77645 4.32849 6.02858 4.33247 6.33559C4.33596 6.6497 4.06384 6.90704 3.72793 6.90657H3.72743Z" fill="#ACB3BD"/>
<path d="M9.86615 6.34884C9.86266 6.67051 9.59702 6.91224 9.25313 6.90657C8.92967 6.90089 8.66403 6.64071 8.66901 6.33417C8.674 6.01818 8.94911 5.76935 9.28702 5.7755C9.61247 5.78118 9.86964 6.03568 9.86615 6.34931V6.34884Z" fill="#ACB3BD"/>
</g>
<defs>
<clipPath id="clip0_1092_3472">
<rect width="13" height="17" fill="white"/>
</clipPath>
</defs>
</svg>
