<svg width="140" height="147" viewBox="0 0 140 147" fill="none" xmlns="http://www.w3.org/2000/svg">
<g clip-path="url(#clip0_936_2772)">
<path d="M14.9507 138.873C14.9507 141.483 14.3047 143.492 13.0175 144.898C11.7302 146.299 9.88131 147 7.47534 147C5.06938 147 3.22044 146.299 1.9332 144.898C0.645959 143.496 0 141.479 0 138.854C0 136.23 0.645959 134.222 1.93788 132.839C3.2298 131.457 5.08342 130.761 7.49875 130.761C9.91407 130.761 11.7583 131.457 13.0362 132.854C14.3141 134.25 14.9554 136.258 14.9554 138.873H14.9507ZM3.48724 138.873C3.48724 140.637 3.81959 141.963 4.48427 142.857C5.14895 143.75 6.14598 144.197 7.47066 144.197C10.1294 144.197 11.4541 142.424 11.4541 138.878C11.4541 135.332 10.1341 133.545 7.48938 133.545C6.1647 133.545 5.16768 133.992 4.49363 134.89C3.81959 135.788 3.48256 137.114 3.48256 138.878L3.48724 138.873Z" fill="url(#paint0_radial_936_2772)"/>
<path d="M32.1388 146.784H27.9073L21.0733 134.848H20.975C21.1107 136.955 21.1809 138.459 21.1809 139.358V146.784H18.2039V131.005H22.4026L29.2226 142.824H29.2975C29.1899 140.773 29.1384 139.325 29.1384 138.474V131.005H32.1341V146.784H32.1388Z" fill="url(#paint1_radial_936_2772)"/>
<path d="M36.0942 131.005H40.981C43.2091 131.005 44.824 131.325 45.8304 131.96C46.8367 132.595 47.3376 133.611 47.3376 134.998C47.3376 135.939 47.1176 136.715 46.6776 137.317C46.2376 137.923 45.6525 138.285 44.9223 138.408V138.516C45.9193 138.737 46.6355 139.155 47.0755 139.767C47.5155 140.378 47.7355 141.192 47.7355 142.208C47.7355 143.647 47.2159 144.771 46.1814 145.575C45.147 146.379 43.7427 146.784 41.964 146.784H36.0895V131.005H36.0942ZM39.4223 137.255H41.3554C42.2589 137.255 42.9095 137.114 43.3167 136.837C43.7193 136.555 43.9252 136.094 43.9252 135.445C43.9252 134.843 43.7052 134.406 43.2652 134.147C42.8252 133.883 42.1278 133.752 41.1776 133.752H39.4269V137.26L39.4223 137.255ZM39.4223 139.913V144.023H41.5942C42.5116 144.023 43.1857 143.849 43.6257 143.496C44.061 143.144 44.281 142.603 44.281 141.878C44.281 140.571 43.3495 139.913 41.4865 139.913H39.4223Z" fill="url(#paint2_radial_936_2772)"/>
<path d="M65.1296 138.873C65.1296 141.483 64.4836 143.492 63.1964 144.898C61.9091 146.304 60.0602 147 57.6542 147C55.2483 147 53.3993 146.299 52.1121 144.898C50.8248 143.496 50.1789 141.479 50.1789 138.854C50.1789 136.23 50.8248 134.222 52.1168 132.839C53.4087 131.457 55.2623 130.761 57.6776 130.761C60.093 130.761 61.9372 131.457 63.2151 132.854C64.493 134.25 65.1342 136.258 65.1342 138.873H65.1296ZM53.6708 138.873C53.6708 140.637 54.0031 141.963 54.6678 142.857C55.3325 143.75 56.3295 144.197 57.6542 144.197C60.313 144.197 61.6376 142.424 61.6376 138.878C61.6376 135.332 60.3176 133.545 57.6729 133.545C56.3483 133.545 55.3512 133.992 54.6772 134.89C54.0031 135.788 53.6661 137.114 53.6661 138.878L53.6708 138.873Z" fill="url(#paint3_radial_936_2772)"/>
<path d="M81.0773 146.784H77.2764L73.6253 140.816L69.9743 146.784H66.4074L71.6172 138.648L66.7398 131.005H70.4143L73.7985 136.682L77.1173 131.005H80.7028L75.7739 138.831L81.082 146.784H81.0773Z" fill="url(#paint4_radial_936_2772)"/>
<path d="M92.3254 142.401C92.3254 143.826 91.8152 144.95 90.7947 145.768C89.7743 146.586 88.356 147 86.5352 147C84.8594 147 83.3756 146.685 82.0883 146.05V142.941C83.1462 143.416 84.0449 143.75 84.7798 143.943C85.5147 144.136 86.1841 144.235 86.7926 144.235C87.5228 144.235 88.0845 144.094 88.473 143.816C88.8615 143.539 89.0581 143.12 89.0581 142.565C89.0581 142.255 88.9739 141.982 88.8007 141.737C88.6275 141.493 88.3747 141.262 88.0424 141.041C87.7101 140.82 87.0313 140.463 86.0062 139.974C85.0466 139.522 84.3258 139.085 83.8483 138.666C83.3662 138.248 82.9871 137.763 82.6968 137.208C82.4113 136.654 82.2662 136.009 82.2662 135.266C82.2662 133.869 82.739 132.774 83.6798 131.974C84.6207 131.175 85.922 130.775 87.5837 130.775C88.3981 130.775 89.1798 130.874 89.9194 131.066C90.659 131.259 91.436 131.537 92.2458 131.885L91.1739 134.485C90.336 134.142 89.6432 133.898 89.0956 133.761C88.5479 133.625 88.0096 133.554 87.4807 133.554C86.8488 133.554 86.3666 133.7 86.0296 133.996C85.6926 134.293 85.5241 134.678 85.5241 135.153C85.5241 135.45 85.5896 135.704 85.73 135.925C85.8705 136.146 86.0811 136.357 86.3807 136.559C86.6756 136.766 87.3824 137.133 88.4918 137.665C89.9616 138.37 90.9679 139.076 91.5109 139.786C92.0539 140.496 92.3254 141.361 92.3254 142.391V142.401Z" fill="url(#paint5_radial_936_2772)"/>
<path d="M108.039 146.784H104.72V139.974H98.4995V146.784H95.1714V131.005H98.4995V137.19H104.72V131.005H108.039V146.784Z" fill="url(#paint6_radial_936_2772)"/>
<path d="M140 135.925C140 137.622 139.471 138.92 138.418 139.819C137.36 140.717 135.857 141.168 133.91 141.168H132.483V146.779H129.154V131.001H134.172C136.077 131.001 137.524 131.414 138.516 132.237C139.509 133.06 140.005 134.288 140.005 135.925H140ZM132.483 138.427H133.578C134.603 138.427 135.371 138.224 135.876 137.815C136.382 137.406 136.639 136.818 136.639 136.037C136.639 135.257 136.424 134.674 135.998 134.302C135.572 133.931 134.903 133.742 133.994 133.742H132.478V138.427H132.483Z" fill="url(#paint7_radial_936_2772)"/>
<path d="M117.869 146.516L112.467 143.383C111.934 143.073 111.606 142.504 111.606 141.888V135.624C111.606 135.007 111.934 134.434 112.467 134.128L117.869 130.996C118.402 130.685 119.058 130.685 119.591 130.996L124.993 134.128C125.527 134.438 125.854 135.007 125.854 135.624V141.888C125.854 142.504 125.527 143.078 124.993 143.383L119.591 146.516C119.058 146.826 118.402 146.826 117.869 146.516Z" fill="url(#paint8_linear_936_2772)"/>
<path d="M64.1232 120.461L22.8379 96.5139C18.7656 94.153 16.2566 89.7886 16.2566 85.0622V37.1674C16.2566 32.4456 18.7656 28.0813 22.8379 25.7157L64.1232 1.77301C68.1955 -0.58787 73.2087 -0.58787 77.2811 1.77301L118.566 25.7204C122.639 28.0813 125.148 32.4456 125.148 37.1721V85.0669C125.148 89.7887 122.639 94.153 118.566 96.5186L77.2811 120.466C73.2087 122.827 68.1955 122.827 64.1232 120.466V120.461ZM37.4984 88.0109L64.1232 103.455C68.1955 105.816 73.2087 105.816 77.2811 103.455L103.906 88.0109C107.978 85.6501 110.487 81.2857 110.487 76.5593V45.6703C110.487 40.9486 107.978 36.5842 103.906 34.2186L77.2811 18.7742C73.2087 16.4133 68.1955 16.4133 64.1232 18.7742L37.4984 34.2186C33.4261 36.5795 30.9171 40.9439 30.9171 45.6703V76.5593C30.9171 81.281 33.4261 85.6453 37.4984 88.0109Z" fill="url(#paint9_linear_936_2772)"/>
<path d="M125.147 37.1674C125.147 32.4456 122.638 28.0813 118.566 25.7157L77.2854 1.77301C73.2131 -0.58787 68.1999 -0.58787 64.1275 1.77301L22.8423 25.7204C18.7699 28.0813 16.261 32.4456 16.261 37.1721V39.9986C20.4176 45.1859 25.267 50.2604 30.9214 54.9727V45.675C30.9214 40.9533 33.4304 36.5889 37.5027 34.2233L64.1275 18.7789C68.1999 16.418 73.2131 16.418 77.2854 18.7789L103.91 34.2233C107.983 36.5842 110.491 40.9486 110.491 45.675V76.564C110.491 78.0172 110.253 79.4375 109.803 80.7778C114.714 80.7966 119.825 80.6132 125.147 80.2087V37.1721V37.1674Z" fill="url(#paint10_linear_936_2772)"/>
<path d="M77.3841 38.4184V58.3306C77.3841 59.1113 77.796 59.8309 78.47 60.2259L94.9888 69.8246C95.9062 70.3608 97.0577 69.693 97.0577 68.6254V48.2146C97.0577 47.274 96.5288 46.4134 95.6956 45.9901L78.8773 37.4919C78.1939 37.1439 77.3841 37.6471 77.3841 38.4137V38.4184Z" fill="url(#paint11_linear_936_2772)"/>
<path d="M66.6883 44.4475V64.3598C66.6883 65.1405 67.1002 65.8601 67.7742 66.2551L84.293 75.8538C85.2105 76.39 86.362 75.7221 86.362 74.6546V54.2438C86.362 53.3032 85.833 52.4426 84.9998 52.0193L68.1815 43.5211C67.4981 43.173 66.6883 43.6763 66.6883 44.4428V44.4475Z" fill="url(#paint12_linear_936_2772)"/>
<path d="M56.8491 49.7054V69.6177C56.8491 70.3984 57.261 71.1179 57.9351 71.513L74.4538 81.1117C75.3713 81.6478 76.5228 80.98 76.5228 79.9125V59.5017C76.5228 58.5611 75.9939 57.7004 75.1607 57.2772L58.3423 48.779C57.6589 48.4309 56.8491 48.9341 56.8491 49.7007V49.7054Z" fill="url(#paint13_linear_936_2772)"/>
<path d="M44.295 54.7329V74.6452C44.295 75.4259 44.7069 76.1454 45.381 76.5405L61.8998 86.1392C62.8172 86.6753 63.9687 86.0075 63.9687 84.9399V64.5291C63.9687 63.5885 63.4398 62.7279 62.6066 62.3046L45.7882 53.8064C45.1048 53.4584 44.295 53.9616 44.295 54.7282V54.7329Z" fill="url(#paint14_linear_936_2772)"/>
</g>
<defs>
<radialGradient id="paint0_radial_936_2772" cx="0" cy="0" r="1" gradientUnits="userSpaceOnUse" gradientTransform="translate(7.47534 138.878) scale(7.78428 7.821)">
<stop stop-color="#253A5F"/>
<stop offset="1" stop-color="#252D52"/>
</radialGradient>
<radialGradient id="paint1_radial_936_2772" cx="0" cy="0" r="1" gradientUnits="userSpaceOnUse" gradientTransform="translate(25.1737 138.892) scale(7.42385 7.45887)">
<stop stop-color="#253A5F"/>
<stop offset="1" stop-color="#252D52"/>
</radialGradient>
<radialGradient id="paint2_radial_936_2772" cx="0" cy="0" r="1" gradientUnits="userSpaceOnUse" gradientTransform="translate(41.9125 138.892) scale(6.91364 6.94625)">
<stop stop-color="#253A5F"/>
<stop offset="1" stop-color="#252D52"/>
</radialGradient>
<radialGradient id="paint3_radial_936_2772" cx="0" cy="0" r="1" gradientUnits="userSpaceOnUse" gradientTransform="translate(57.6495 0.235169) scale(7.78428 7.821)">
<stop stop-color="#253A5F"/>
<stop offset="1" stop-color="#252D52"/>
</radialGradient>
<radialGradient id="paint4_radial_936_2772" cx="0" cy="0" r="1" gradientUnits="userSpaceOnUse" gradientTransform="translate(73.7424 138.892) scale(7.59705 7.63288)">
<stop stop-color="#253A5F"/>
<stop offset="1" stop-color="#252D52"/>
</radialGradient>
<radialGradient id="paint5_radial_936_2772" cx="0" cy="0" r="1" gradientUnits="userSpaceOnUse" gradientTransform="translate(87.2092 138.887) scale(6.75917 6.79105)">
<stop stop-color="#253A5F"/>
<stop offset="1" stop-color="#252D52"/>
</radialGradient>
<radialGradient id="paint6_radial_936_2772" cx="0" cy="0" r="1" gradientUnits="userSpaceOnUse" gradientTransform="translate(101.608 138.892) scale(7.18045 7.21432)">
<stop stop-color="#253A5F"/>
<stop offset="1" stop-color="#252D52"/>
</radialGradient>
<radialGradient id="paint7_radial_936_2772" cx="0" cy="0" r="1" gradientUnits="userSpaceOnUse" gradientTransform="translate(134.575 138.892) scale(6.74981 6.78165)">
<stop stop-color="#253A5F"/>
<stop offset="1" stop-color="#252D52"/>
</radialGradient>
<linearGradient id="paint8_linear_936_2772" x1="118.468" y1="135.896" x2="121.402" y2="167.69" gradientUnits="userSpaceOnUse">
<stop stop-color="#36D9FF"/>
<stop offset="1" stop-color="#5900DB"/>
</linearGradient>
<linearGradient id="paint9_linear_936_2772" x1="70.7045" y1="29.0078" x2="70.7045" y2="176.219" gradientUnits="userSpaceOnUse">
<stop stop-color="#36D9FF"/>
<stop offset="1" stop-color="#5900DB"/>
</linearGradient>
<linearGradient id="paint10_linear_936_2772" x1="70.7041" y1="19.1692" x2="70.7041" y2="116.45" gradientUnits="userSpaceOnUse">
<stop stop-color="#43FFFF"/>
<stop offset="1" stop-color="#3FA2F6"/>
</linearGradient>
<linearGradient id="paint11_linear_936_2772" x1="88.4684" y1="39.5988" x2="86.0351" y2="66.5446" gradientUnits="userSpaceOnUse">
<stop stop-color="#FFAE00"/>
<stop offset="0.18" stop-color="#FFAA02"/>
<stop offset="0.33" stop-color="#FF9F0B"/>
<stop offset="0.47" stop-color="#FF8E1A"/>
<stop offset="0.61" stop-color="#FF752E"/>
<stop offset="0.74" stop-color="#FF5449"/>
<stop offset="0.87" stop-color="#FF2D69"/>
<stop offset="1" stop-color="#FF008F"/>
</linearGradient>
<linearGradient id="paint12_linear_936_2772" x1="77.7679" y1="45.628" x2="75.3394" y2="72.5691" gradientUnits="userSpaceOnUse">
<stop stop-color="#FFAE00"/>
<stop offset="0.18" stop-color="#FFAA02"/>
<stop offset="0.33" stop-color="#FF9F0B"/>
<stop offset="0.47" stop-color="#FF8E1A"/>
<stop offset="0.61" stop-color="#FF752E"/>
<stop offset="0.74" stop-color="#FF5449"/>
<stop offset="0.87" stop-color="#FF2D69"/>
<stop offset="1" stop-color="#FF008F"/>
</linearGradient>
<linearGradient id="paint13_linear_936_2772" x1="67.9334" y1="50.8859" x2="65.5001" y2="77.8317" gradientUnits="userSpaceOnUse">
<stop stop-color="#FFAE00"/>
<stop offset="0.18" stop-color="#FFAA02"/>
<stop offset="0.33" stop-color="#FF9F0B"/>
<stop offset="0.47" stop-color="#FF8E1A"/>
<stop offset="0.61" stop-color="#FF752E"/>
<stop offset="0.74" stop-color="#FF5449"/>
<stop offset="0.87" stop-color="#FF2D69"/>
<stop offset="1" stop-color="#FF008F"/>
</linearGradient>
<linearGradient id="paint14_linear_936_2772" x1="55.3746" y1="55.918" x2="52.9461" y2="82.8592" gradientUnits="userSpaceOnUse">
<stop stop-color="#FFAE00"/>
<stop offset="0.18" stop-color="#FFAA02"/>
<stop offset="0.33" stop-color="#FF9F0B"/>
<stop offset="0.47" stop-color="#FF8E1A"/>
<stop offset="0.61" stop-color="#FF752E"/>
<stop offset="0.74" stop-color="#FF5449"/>
<stop offset="0.87" stop-color="#FF2D69"/>
<stop offset="1" stop-color="#FF008F"/>
</linearGradient>
<clipPath id="clip0_936_2772">
<rect width="140" height="147" fill="white"/>
</clipPath>
</defs>
</svg>
