<svg width="140" height="11" viewBox="0 0 140 11" fill="none" xmlns="http://www.w3.org/2000/svg">
<path d="M3.59 10H0.86L4.57 0.199999H7.37L11.08 10H8.35L7.72 8.25H4.22L3.59 10ZM4.85 6.43H7.09L5.97 3.14L4.85 6.43ZM15.0115 10C14.3861 10.0933 13.7888 10.14 13.2195 10.14C12.6595 10.14 12.1881 9.94867 11.8055 9.566C11.4228 9.18333 11.2315 8.67467 11.2315 8.04V0.199999H13.6815V7.69C13.6815 7.83 13.7281 7.94667 13.8215 8.04C13.9148 8.13333 14.0315 8.18 14.1715 8.18H15.0115V10ZM19.3613 10C18.7359 10.0933 18.1386 10.14 17.5693 10.14C17.0093 10.14 16.5379 9.94867 16.1553 9.566C15.7726 9.18333 15.5813 8.67467 15.5813 8.04V0.199999H18.0313V7.69C18.0313 7.83 18.0779 7.94667 18.1713 8.04C18.2646 8.13333 18.3813 8.18 18.5213 8.18H19.3613V10ZM28.6203 10H26.1003V2.16H23.1603V0.199999H31.5603V2.16H28.6203V10ZM34.444 2.72C35.3493 2.53333 36.1427 2.44 36.824 2.44H37.454C38.0887 2.44 38.5973 2.63133 38.98 3.014C39.3627 3.39667 39.554 3.90533 39.554 4.54V10H37.104V4.82C37.104 4.68 37.0573 4.56333 36.964 4.47C36.8707 4.37667 36.754 4.33 36.614 4.33H36.124C35.7693 4.33 35.4427 4.34867 35.144 4.386C34.8547 4.42333 34.6213 4.45133 34.444 4.47V10H31.994V0.199999H34.444V2.72ZM43.2743 4.19C42.901 4.19 42.7143 4.37667 42.7143 4.75V5.52H45.0943V4.75C45.0943 4.37667 44.9077 4.19 44.5343 4.19H43.2743ZM47.2643 9.86C45.463 10.0467 43.8297 10.14 42.3643 10.14C41.7297 10.14 41.221 9.94867 40.8383 9.566C40.4557 9.18333 40.2643 8.67467 40.2643 8.04V4.68C40.2643 3.98 40.4603 3.434 40.8523 3.042C41.2537 2.64067 41.8043 2.44 42.5043 2.44H45.3043C46.0043 2.44 46.5503 2.64067 46.9423 3.042C47.3437 3.434 47.5443 3.98 47.5443 4.68V7.27H42.7143V7.83C42.7143 7.97 42.761 8.08667 42.8543 8.18C42.9477 8.27333 43.0643 8.32 43.2043 8.32C44.1283 8.32 45.4817 8.25 47.2643 8.11V9.86ZM59.8801 9.86C57.7988 10.0467 56.0721 10.14 54.7001 10.14C53.7855 10.14 53.1135 9.92533 52.6841 9.496C52.2548 9.06667 52.0401 8.39467 52.0401 7.48V3C52.0401 2.02 52.2595 1.31067 52.6981 0.872C53.1461 0.424 53.8601 0.199999 54.8401 0.199999H59.8801V2.16H55.4001C54.8401 2.16 54.5601 2.44 54.5601 3V7.48C54.5601 7.69467 54.6208 7.86733 54.7421 7.998C54.8728 8.11933 55.0361 8.18 55.2321 8.18C55.4281 8.18 55.6428 8.18 55.8761 8.18C56.1095 8.17067 56.3521 8.16133 56.6041 8.152C56.8561 8.14267 57.1081 8.13333 57.3601 8.124C57.6215 8.11467 57.9528 8.096 58.3541 8.068C58.7648 8.04 59.2735 8.00733 59.8801 7.97V9.86ZM68.0138 7.9C68.0138 8.6 67.8131 9.15067 67.4118 9.552C67.0198 9.944 66.4738 10.14 65.7738 10.14H62.5538C61.8538 10.14 61.3031 9.944 60.9018 9.552C60.5098 9.15067 60.3138 8.6 60.3138 7.9V4.68C60.3138 3.98 60.5098 3.434 60.9018 3.042C61.3031 2.64067 61.8538 2.44 62.5538 2.44H65.7738C66.4738 2.44 67.0198 2.64067 67.4118 3.042C67.8131 3.434 68.0138 3.98 68.0138 4.68V7.9ZM65.5638 4.89C65.5638 4.51667 65.3771 4.33 65.0038 4.33H63.3238C62.9504 4.33 62.7638 4.51667 62.7638 4.89V7.69C62.7638 8.06333 62.9504 8.25 63.3238 8.25H65.0038C65.3771 8.25 65.5638 8.06333 65.5638 7.69V4.89ZM73.8341 2.44C74.5901 2.44 75.1735 2.72 75.5841 3.28C76.0135 2.99067 76.4755 2.78067 76.9701 2.65C77.4741 2.51 77.9221 2.44 78.3141 2.44H78.4541C79.0888 2.44 79.5975 2.63133 79.9801 3.014C80.3628 3.39667 80.5541 3.90533 80.5541 4.54V10H78.1041V4.96C78.1041 4.82 78.0575 4.70333 77.9641 4.61C77.8708 4.51667 77.7541 4.47 77.6141 4.47H77.5441C77.1241 4.47 76.5875 4.56333 75.9341 4.75V10H73.4841V4.96C73.4841 4.82 73.4375 4.70333 73.3441 4.61C73.2508 4.51667 73.1341 4.47 72.9941 4.47H72.9241C72.5041 4.47 71.9675 4.56333 71.3141 4.75V10H68.8641V2.58H71.0341L71.1741 3.28C71.6128 2.99067 72.0608 2.78067 72.5181 2.65C72.9848 2.51 73.3768 2.44 73.6941 2.44H73.8341ZM86.3734 2.44C87.1294 2.44 87.7127 2.72 88.1234 3.28C88.5527 2.99067 89.0147 2.78067 89.5094 2.65C90.0134 2.51 90.4614 2.44 90.8534 2.44H90.9934C91.6281 2.44 92.1367 2.63133 92.5194 3.014C92.9021 3.39667 93.0934 3.90533 93.0934 4.54V10H90.6434V4.96C90.6434 4.82 90.5967 4.70333 90.5034 4.61C90.4101 4.51667 90.2934 4.47 90.1534 4.47H90.0834C89.6634 4.47 89.1267 4.56333 88.4734 4.75V10H86.0234V4.96C86.0234 4.82 85.9767 4.70333 85.8834 4.61C85.7901 4.51667 85.6734 4.47 85.5334 4.47H85.4634C85.0434 4.47 84.5067 4.56333 83.8534 4.75V10H81.4034V2.58H83.5734L83.7134 3.28C84.1521 2.99067 84.6001 2.78067 85.0574 2.65C85.5241 2.51 85.9161 2.44 86.2334 2.44H86.3734ZM101.503 7.9C101.503 8.6 101.302 9.15067 100.901 9.552C100.509 9.944 99.9627 10.14 99.2627 10.14H96.0427C95.3427 10.14 94.792 9.944 94.3907 9.552C93.9987 9.15067 93.8027 8.6 93.8027 7.9V4.68C93.8027 3.98 93.9987 3.434 94.3907 3.042C94.792 2.64067 95.3427 2.44 96.0427 2.44H99.2627C99.9627 2.44 100.509 2.64067 100.901 3.042C101.302 3.434 101.503 3.98 101.503 4.68V7.9ZM99.0527 4.89C99.0527 4.51667 98.866 4.33 98.4927 4.33H96.8127C96.4393 4.33 96.2527 4.51667 96.2527 4.89V7.69C96.2527 8.06333 96.4393 8.25 96.8127 8.25H98.4927C98.866 8.25 99.0527 8.06333 99.0527 7.69V4.89ZM107.603 10L107.463 9.3C107.024 9.58933 106.572 9.804 106.105 9.944C105.648 10.0747 105.26 10.14 104.943 10.14H104.313C103.678 10.14 103.17 9.94867 102.787 9.566C102.404 9.18333 102.213 8.67467 102.213 8.04V4.82C102.213 4.12 102.409 3.574 102.801 3.182C103.202 2.78067 103.753 2.58 104.453 2.58H107.323V0.199999H109.773V10H107.603ZM105.643 8.11C106.138 8.11 106.698 8.01667 107.323 7.83V4.47H105.223C104.85 4.47 104.663 4.65667 104.663 5.03V7.62C104.663 7.76 104.71 7.87667 104.803 7.97C104.896 8.06333 105.013 8.11 105.153 8.11H105.643ZM113.843 2.86V10H111.393V4.75H110.343V2.86H113.843ZM111.393 0.0599995H113.843V2.02H111.393V0.0599995ZM120.02 10C119.114 10.0933 118.228 10.14 117.36 10.14C116.725 10.14 116.216 9.94867 115.834 9.566C115.451 9.18333 115.26 8.67467 115.26 8.04V4.47H114.42V2.58H115.26L115.54 0.899999H117.71V2.58H119.46V4.47H117.71V7.69C117.71 7.83 117.756 7.94667 117.85 8.04C117.943 8.13333 118.06 8.18 118.2 8.18H120.02V10ZM123.404 2.86V10H120.954V4.75H119.904V2.86H123.404ZM120.954 0.0599995H123.404V2.02H120.954V0.0599995ZM127.271 4.19C126.897 4.19 126.711 4.37667 126.711 4.75V5.52H129.091V4.75C129.091 4.37667 128.904 4.19 128.531 4.19H127.271ZM131.261 9.86C129.459 10.0467 127.826 10.14 126.361 10.14C125.726 10.14 125.217 9.94867 124.835 9.566C124.452 9.18333 124.261 8.67467 124.261 8.04V4.68C124.261 3.98 124.457 3.434 124.849 3.042C125.25 2.64067 125.801 2.44 126.501 2.44H129.301C130.001 2.44 130.547 2.64067 130.939 3.042C131.34 3.434 131.541 3.98 131.541 4.68V7.27H126.711V7.83C126.711 7.97 126.757 8.08667 126.851 8.18C126.944 8.27333 127.061 8.32 127.201 8.32C128.125 8.32 129.478 8.25 131.261 8.11V9.86ZM132.107 8.04C134.002 8.18 135.495 8.25 136.587 8.25C136.727 8.25 136.844 8.20333 136.937 8.11C137.031 8.01667 137.077 7.9 137.077 7.76V7.27H134.067C133.433 7.27 132.924 7.07867 132.541 6.696C132.159 6.31333 131.967 5.80467 131.967 5.17V4.68C131.967 4.04533 132.159 3.53667 132.541 3.154C132.924 2.77133 133.433 2.58 134.067 2.58H138.827V4.4H134.907C134.767 4.4 134.651 4.44667 134.557 4.54C134.464 4.63333 134.417 4.75 134.417 4.89C134.417 5.03 134.464 5.14667 134.557 5.24C134.651 5.33333 134.767 5.38 134.907 5.38H137.427C138.062 5.38 138.571 5.57133 138.953 5.954C139.336 6.33667 139.527 6.84533 139.527 7.48V8.04C139.527 8.67467 139.336 9.18333 138.953 9.566C138.571 9.94867 138.062 10.14 137.427 10.14C135.775 10.14 134.002 10.0467 132.107 9.86V8.04Z" fill="#333333"/>
</svg>
