<svg width="17" height="17" viewBox="0 0 17 17" fill="none" xmlns="http://www.w3.org/2000/svg">
<g clip-path="url(#clip0_1092_3478)">
<path d="M15.9711 17H1.03243C1.02356 16.9937 1.01558 16.9844 1.00538 16.9813C0.3029 16.7668 0.00399274 16.3648 0.00399274 15.6329C0.00399274 12.4698 0.00621015 9.30625 1.39733e-06 6.14313C-0.000442085 5.85723 0.104663 5.67017 0.337048 5.51059C2.92122 3.73754 5.50051 1.95829 8.08158 0.180807C8.43104 -0.0598842 8.57473 -0.0598842 8.92242 0.179477C11.4888 1.94721 14.0566 3.71361 16.6191 5.48666C16.7667 5.58861 16.8741 5.74907 17 5.88205V15.9707C16.9078 16.2903 16.7689 16.5851 16.4771 16.7668C16.3206 16.8643 16.1405 16.9228 15.9711 16.9995V17ZM13.8127 15.9383C14.4345 15.9383 15.0363 15.9383 15.6385 15.9383C15.8909 15.9383 15.9383 15.8909 15.9383 15.6396C15.9383 12.5815 15.9379 9.52301 15.9405 6.46494C15.9405 6.35457 15.9108 6.28542 15.8168 6.22114C13.4162 4.57177 11.0174 2.92017 8.61996 1.26547C8.53393 1.20607 8.47672 1.20164 8.38891 1.26237C5.98346 2.92283 3.57535 4.57974 1.17124 6.24242C1.11669 6.2801 1.06968 6.37318 1.06968 6.44012C1.0648 9.52035 1.06525 12.6006 1.06569 15.6812C1.06569 15.8776 1.12645 15.9375 1.3238 15.9379C1.89899 15.9392 2.47419 15.9383 3.04983 15.9379C3.0924 15.9379 3.13498 15.9335 3.1913 15.9308C3.1913 15.8608 3.1913 15.8009 3.1913 15.7415C3.1913 14.7185 3.20239 13.695 3.18553 12.6724C3.17932 12.3049 3.40373 12.027 3.81528 12.0372C4.3683 12.0509 4.92177 12.0407 5.47479 12.0403C5.53377 12.0403 5.59231 12.035 5.66682 12.0314C5.66682 11.9508 5.66682 11.8856 5.66682 11.82C5.66682 10.6919 5.66637 9.56379 5.66682 8.43568C5.66682 7.98622 5.86283 7.79295 6.31519 7.79295C7.76981 7.79251 9.22443 7.79295 10.6791 7.79295C11.1491 7.79295 11.3381 7.984 11.3381 8.45962C11.3381 9.5824 11.3381 10.7047 11.3381 11.8275C11.3381 11.8922 11.3381 11.9565 11.3381 12.0407C11.4188 12.0407 11.4778 12.0407 11.5372 12.0407C12.1071 12.0407 12.6769 12.0367 13.2464 12.0425C13.6038 12.0461 13.8123 12.2624 13.8127 12.6139C13.8136 13.062 13.8127 13.5097 13.8127 13.9578C13.8127 14.6099 13.8127 15.2619 13.8127 15.9383ZM6.74403 12.0172H10.2555V8.8754H9.0324C9.0324 9.04561 9.03329 9.20519 9.0324 9.36432C9.03018 9.68435 8.80224 9.92505 8.502 9.92549C8.20353 9.92549 7.97381 9.68347 7.97204 9.36432C7.97115 9.20075 7.97204 9.03675 7.97204 8.87762H6.74492V12.0172H6.74403ZM4.25787 15.9268H7.95873V13.1285H6.73782C6.73782 13.2792 6.73782 13.4175 6.73782 13.5554C6.73649 13.9166 6.52185 14.1671 6.20875 14.1737C5.89299 14.1804 5.66948 13.9255 5.66682 13.5545C5.66549 13.4122 5.66682 13.2699 5.66682 13.1241H4.25832V15.9268H4.25787ZM12.7412 15.9321V13.1192H11.3372C11.3372 13.2845 11.3407 13.4432 11.3363 13.6019C11.327 13.937 11.0977 14.1777 10.7975 14.1737C10.4972 14.1693 10.2702 13.9211 10.2662 13.5908C10.2644 13.4379 10.2662 13.2845 10.2662 13.125H9.04216V15.9321H12.7412Z" fill="#ACB3BD"/>
</g>
<defs>
<clipPath id="clip0_1092_3478">
<rect width="17" height="17" fill="white"/>
</clipPath>
</defs>
</svg>
